<svg width="102" height="120" viewBox="0 0 102 120" fill="none" xmlns="http://www.w3.org/2000/svg">
<path d="M58.365 119.745C56.8013 119.471 55.1813 118.729 54.2625 117.908C53.6388 117.253 53.2829 116.389 53.265 115.485C53.265 114.566 53.7338 113.276 54.4763 111.99C54.9263 111.266 55.2788 110.486 55.53 109.665C55.6875 109.099 56.0175 108.18 56.2725 107.595L56.7225 106.523L56.8388 99.3563C56.8988 95.3925 57.015 91.7213 57.1125 91.1513C57.3675 89.5088 57.795 87.9075 58.3613 86.3475L58.7925 85.3125L58.1663 84.9413C57.6 84.5888 57.1313 84.1013 55.275 81.8925C52.9913 79.1963 49.9838 77.7113 45.7238 77.205C44.3363 77.07 42.93 76.9688 41.5238 76.9125C35.2725 76.62 31.6988 75.3113 28.4775 72.1463C26.0738 69.7838 24.825 67.0275 24.3188 62.9663C23.6363 57.4763 22.875 54.6638 21.4688 52.38C21.1222 51.816 20.7229 51.2861 20.2763 50.7975L19.71 50.2313L18.4613 51.0338C17.7788 51.4838 16.8188 52.05 16.35 52.305C14.7863 53.1638 13.3013 54.12 11.8763 55.155C8.38126 57.6938 4.57126 60.8775 2.48251 62.9663C1.54501 63.9038 1.05751 64.3125 0.840007 64.275C-0.584994 64.0613 0.506256 57.8888 2.83126 53.2388C5.80126 47.2425 10.8 41.715 16.5825 37.9838C21.33 34.9163 29.0063 30.6975 32.5575 29.2125C38.865 26.5763 47.0288 23.7225 52.6163 22.2C53.79 21.8663 54.51 21.5738 54.9975 21.2438C56.0925 20.4825 57.165 20.1113 58.395 20.0925C59.43 20.0738 59.5275 20.055 60.525 19.3875C61.6988 18.6263 62.0475 18.585 63.2213 18.9975L63.9825 19.2713L64.92 18.6263L65.8575 18L67.2038 18.0188C68.2388 18.0375 68.7075 18 69.1575 17.805C69.7238 17.55 69.7425 17.5125 69.9 16.575C70.2525 14.5425 70.29 13.5263 70.0763 12.2963C69.8025 10.6763 69.765 4.3875 70.0388 3.15375C70.3313 1.82625 70.5263 1.5525 71.5238 1.065C73.0088 0.341252 74.1225 0.127502 76.68 0.127502C79.8038 0.127502 81.3863 0.558753 82.56 1.69125C83.6138 2.7075 83.79 5.08875 83.2425 10.6763C82.9088 13.8975 82.8713 14.7975 82.9688 16.905C83.0063 18.2513 83.1038 19.5225 83.145 19.6988C83.2238 20.0325 83.3025 20.0513 84.435 20.07C85.5488 20.0888 85.7438 20.1488 86.7975 20.6963C87.8138 21.225 88.575 21.87 88.7325 22.3388C88.7513 22.4363 88.9275 22.4363 89.2388 22.3388C89.8425 22.1625 90.3713 22.3575 90.8025 22.8863C91.0575 23.22 91.2113 23.2763 91.8 23.2763C92.6025 23.2763 92.895 23.4713 93.5588 24.45C93.8692 24.8893 94.2948 25.2344 94.7888 25.4475C95.8838 25.995 97.3688 27.5175 97.935 28.7288C98.8125 30.525 98.9888 32.6138 98.4413 34.4888C98.2463 35.1938 98.2463 35.2125 98.655 35.895C99.5138 37.3613 99.8288 39.1575 99.4763 40.68L99.2813 41.58L99.8663 42.165C102.776 45.075 102.345 49.8225 98.7938 54.06C98.3968 54.544 98.0618 55.0756 97.7963 55.6425C97.1138 57.4575 96.33 58.7288 95.3175 59.7825L94.2825 60.8363H93.2288C92.175 60.8363 90.69 60.4838 89.79 60.015C89.4188 59.82 89.4 59.82 89.4788 60.0525C89.715 60.9113 90.3 64.4063 90.495 66.3413C90.8063 69.3113 90.7088 73.6275 90.3 75.4838C90.0013 76.8586 89.5009 78.1816 88.815 79.41C88.425 80.0363 88.4063 80.1713 88.4813 80.9325C88.5975 82.005 88.3463 83.805 87.915 84.9938C87.3863 86.3813 87.1913 87.0263 87.075 87.7275C86.9775 88.3313 86.9775 88.3313 87.4088 88.3313C87.975 88.3313 88.2863 88.665 88.2863 89.3288C88.2863 89.6213 88.0313 91.2038 87.72 92.8238C86.8613 97.3763 86.8013 97.8825 86.8013 102.296C86.7825 106.849 86.7825 106.808 87.8175 107.49L90.1425 108.994C92.1427 110.321 94.2847 111.422 96.5288 112.275C99.7913 113.565 100.241 113.895 100.241 114.99C100.241 115.478 100.144 115.654 99.735 116.044C98.4863 117.255 96.0225 117.529 91.0613 117C88.4832 116.758 85.8956 116.635 83.3063 116.629C76.47 116.531 75.4725 116.295 74.5763 114.596C74.07 113.621 74.1675 112.35 74.8688 110.261C75.18 109.343 75.4538 108.405 75.69 107.449C76.1588 105.184 75.8475 102.488 74.7525 99.4425L73.815 96.8438C72.8963 94.2075 72.39 89.3813 72.9375 88.29C73.035 88.0763 73.2113 88.035 73.68 88.0538L74.265 88.1138L74.7525 87.0975C75.1238 86.295 75.5325 85.77 76.6463 84.6563L78.0713 83.2313L77.9925 82.3125C77.9325 81.435 76.7813 77.175 76.6238 77.1938C76.5638 77.1938 76.2525 77.625 75.9 78.1688C75.0413 79.4588 73.1475 81.45 72.0713 82.1738C71.6025 82.485 71.2125 82.8563 71.2125 82.9763C71.1938 83.505 70.7438 84.54 70.1963 85.26C69.6675 85.965 69.63 86.0813 69.7088 86.7038C69.8438 87.6225 69.5513 90.57 69.2025 92.115C68.8864 93.2622 68.4541 94.3742 67.9125 95.4338C66.5663 98.2275 65.55 100.725 65.295 101.88C65.1108 102.992 64.9931 104.114 64.9425 105.24C64.8825 106.568 64.7475 107.858 64.65 108.131C64.515 108.503 64.515 108.795 64.6313 109.361C64.7288 109.77 64.7888 110.689 64.7663 111.413C64.7475 112.41 64.8263 113.055 65.1188 114.225C65.625 116.216 65.7225 117.469 65.49 118.211C65.3325 118.68 65.1788 118.856 64.65 119.111C63.4763 119.715 60.1575 120.049 58.3613 119.738L58.365 119.745ZM63.1088 118.144C63.7913 117.949 64.38 117.364 64.38 116.835C64.38 116.599 64.185 115.916 63.9488 115.313C63.48 114.161 62.6775 111.113 62.6775 110.606C62.6775 110.351 62.6963 110.333 63.0863 110.546L63.5175 110.783V110.235C63.4549 109.73 63.3432 109.233 63.1838 108.75C62.8125 107.636 62.775 107.618 60.4088 107.479L58.8075 107.4L58.2225 107.966C57.9008 108.297 57.6189 108.665 57.3825 109.061C57.1275 109.568 57.03 110.333 57.1875 110.505C57.225 110.565 57.6188 110.505 58.0463 110.408C58.3 110.332 58.5619 110.287 58.8263 110.273C58.8263 110.291 58.395 110.644 57.8513 111.015C55.5075 112.774 54.6863 113.846 54.6863 115.215C54.6863 116.64 56.0325 117.754 58.1438 118.088C59.5875 118.301 62.4 118.361 63.105 118.148L63.1088 118.144ZM94.8863 115.819C95.4713 115.114 95.3925 114.394 94.65 113.573C94.2188 113.141 93.7313 112.77 93.1838 112.478C92.6363 112.185 92.0888 111.851 91.5413 111.503C90.551 110.861 89.5338 110.261 88.4925 109.706C87.5925 109.219 86.715 108.709 85.8563 108.165L85.5038 107.891V102.521C85.5038 97.23 85.485 97.1513 85.2113 97.23C83.8425 97.6013 81.5775 97.7775 78.7088 97.7175L75.6038 97.68L76.0538 98.775C76.8938 100.845 77.325 103.62 77.325 106.804C77.325 107.996 77.2463 108.424 76.9538 109.264C76.7963 109.673 76.6613 110.085 76.5225 110.494C76.4625 110.67 76.68 110.805 77.4788 111.041C78.0638 111.218 78.9225 111.394 79.4138 111.45L80.3138 111.548L80.2163 112.448C80.1188 113.464 80.235 114.536 80.49 114.87C80.6475 115.065 81.2325 115.144 83.9475 115.26C85.9988 115.358 88.2263 115.571 89.9813 115.826C91.5038 116.063 93.1463 116.258 93.6338 116.258C94.455 116.276 94.5338 116.239 94.8825 115.826L94.8863 115.819ZM63.6188 106.68C63.6975 106.62 63.8138 105.566 63.855 104.318C64.0125 100.823 64.1475 100.313 65.9063 96.3675C67.35 93.1463 68.115 90.1388 68.055 88.0088L68.0175 86.7375L67.47 87.2663C66.3375 88.3988 67.1175 86.6213 68.4675 85.0388C69.4838 83.8275 69.8363 83.1638 69.99 82.0913C70.0688 81.66 70.2263 81.4463 70.89 80.94C73.3735 79.0639 75.2871 76.5349 76.4175 73.635C76.6913 72.93 77.3925 70.53 77.9813 68.3025C79.0763 64.1813 79.6613 62.4038 80.19 61.6425C80.385 61.35 80.4638 61.29 80.4263 61.485C80.143 62.5324 79.9214 63.5955 79.7625 64.6688C79.605 65.625 79.3125 67.5 79.1175 68.8088C78.7463 71.4863 78.3563 73.2038 77.8275 74.5313L77.475 75.4313L78.4125 77.8538C79.3875 80.3325 79.8375 82.1325 79.9163 83.8688L79.9763 84.8438L79.215 85.0013C78.2103 85.1791 77.3137 85.7396 76.7138 86.565C76.05 87.5213 75.6788 88.305 75.855 88.4775C75.9338 88.5563 76.89 88.7325 77.985 88.8675C79.6838 89.0625 80.3288 89.0625 82.575 88.9275C83.55 88.89 84.51 88.7925 85.4663 88.6538C85.68 88.575 85.8975 88.1475 86.2463 87.0338C87.0488 84.4763 87.2025 83.5763 87.105 81.78L87.0263 80.1975L87.435 79.6688C88.3913 78.4575 89.1338 76.2713 89.445 73.71C89.8163 70.5863 89.1338 64.0425 87.8625 58.4175C87.2588 55.74 87.0038 54.1388 87.0038 52.9688V51.9338L86.0475 52.0313C82.6088 52.4025 78.45 52.305 75.9113 51.7763C74.5238 51.5025 71.0288 50.4675 70.2675 50.1338L69.6638 49.86L69.585 50.5425C69.525 50.9138 69.4688 51.285 69.39 51.675C69.2738 52.0838 69.3113 52.1813 70.035 52.8863C70.935 53.805 71.2088 54.2738 71.2088 54.8963C71.2088 55.2863 70.995 55.6013 69.9 56.7338C69.1149 57.5715 68.2439 58.3244 67.3013 58.98L66.03 59.8388L65.4825 61.7325C63.5288 68.6663 63.1575 74.9738 64.4475 79.485L64.7588 80.6175L64.1325 81.3975C61.7888 84.345 60.4013 86.5913 60.1875 87.8438C60.0626 88.4605 59.9187 89.0733 59.7563 89.6813C59.25 91.6163 58.8563 94.4475 58.6838 97.515C58.5636 100.083 58.3948 102.648 58.1775 105.21L58.08 105.971L59.055 106.264C59.6025 106.44 60.4238 106.635 60.8925 106.714C61.77 106.849 63.3938 106.811 63.645 106.676L63.6188 106.68ZM82.5825 95.9363C84.105 95.8388 85.4925 95.6025 85.7663 95.37C85.8825 95.2913 86.0213 94.8825 86.0588 94.47L86.1563 93.7275L84.945 94.0013C83.9888 94.1963 83.0325 94.3125 82.0725 94.3913C79.7663 94.4888 77.445 94.4288 75.1575 94.1963C74.3963 94.08 74.3963 94.08 74.6288 95.0738C74.8238 95.8163 74.865 95.8538 76.8563 95.9925C78.1838 96.1088 80.04 96.09 82.5788 95.9325L82.5825 95.9363ZM81.3113 92.5388C83.3025 92.3625 85.785 91.935 86.2725 91.68C86.43 91.6013 86.565 91.3088 86.625 90.975L86.8013 89.94L86.8988 89.4525L86.4113 89.55C84.2438 90 82.6013 90.135 79.32 90.135C76.1175 90.135 75.7463 90.1163 74.9063 89.8238C74.5834 89.6877 74.2397 89.6078 73.89 89.5875C73.755 89.6663 73.7325 90.78 73.8525 91.56C73.9313 92.0288 74.01 92.1075 74.4788 92.2425C75.9638 92.6513 78.465 92.7488 81.315 92.5163L81.3113 92.5388ZM45.0638 74.9213C50.0625 73.4775 56.6063 69.2363 61.9575 63.9263C63.6975 62.1863 63.9113 61.9538 64.1438 61.1738L64.455 60.1763C64.4925 60.0975 64.1813 59.9625 63.7725 59.865C62.7 59.61 61.8788 58.9875 61.8788 58.4213C61.8788 58.0875 61.6838 57.7575 61.1175 57.15C60.1988 56.115 59.9663 55.665 59.8688 54.6713L59.79 53.8688L58.695 53.0888C58.0688 52.6388 55.8825 51.4275 53.5575 50.2575C51.7873 49.3939 50.0545 48.4555 48.3638 47.445C46.41 46.1363 45.1013 44.5725 44.3588 42.72C44.2238 42.3488 44.0475 42.0375 43.9875 42.0375C43.83 42.0375 39.435 46.275 37.56 48.2663C32.9325 53.1488 29.7488 57.3863 27.735 61.3125C27.2288 62.2875 26.6813 63.4425 26.5238 63.87L26.2313 64.65L26.5838 65.9588C26.7975 66.6638 27.2475 67.815 27.6 68.4975C28.83 70.92 30.2963 72.3825 32.7188 73.575C35.3175 74.865 37.62 75.315 41.4675 75.255C43.5375 75.2363 44.145 75.1763 45.06 74.9025L45.0638 74.9213ZM5.61001 57.7913C8.89126 54.8813 13.4213 51.6975 18.9713 48.3975C22.605 46.23 36.6488 39.1988 43.1138 36.3263C44.2875 35.7975 45.3413 35.31 45.4575 35.2538C45.5738 35.175 45.9075 34.335 46.2188 33.3975C47.5875 29.0625 48.27 28.2038 50.7488 27.6375C51.06 27.5588 51.1388 27.4613 51.1388 27.15C51.1388 26.5838 51.5288 25.275 51.8625 24.69C52.1175 24.24 52.1175 24.2213 51.9 24.2813C51.765 24.3188 50.9438 24.555 50.085 24.81C38.1713 28.2488 27.7613 32.8163 18.7763 38.52C9.18751 44.6138 3.66001 51.9188 2.05876 60.6675L1.94251 61.3125L3.11626 60.1613C3.74251 59.5163 4.87501 58.4625 5.61751 57.8175L5.61001 57.7913ZM93.99 59.4525C94.9463 58.965 96.4313 56.7188 96.9788 54.9413C97.1363 54.315 97.4475 53.73 97.8975 53.2425C99.3413 51.6413 100.534 48.7313 100.553 46.74C100.553 43.635 98.7938 42.4425 96.2363 43.77C95.9025 43.9275 95.6325 44.0438 95.5913 44.0063C95.4563 43.8713 96.1763 43.1663 97.0575 42.6188C98.2088 41.8575 98.4263 41.4075 98.4263 39.7875C98.4432 38.4781 98.0541 37.1955 97.3125 36.1163C96.96 35.5875 96.825 35.2388 96.8813 35.0213L97.2338 33.7125C97.7213 31.9725 97.545 29.9813 96.7838 28.7138C95.6513 26.8013 94.2638 25.8638 92.3288 25.7063L91.1963 25.6275L91.86 26.37C93.8325 28.5 94.7888 31.1738 94.3988 33.4613C94.2038 34.635 94.0275 34.8675 92.895 35.3175L92.2313 35.5913L92.31 36.4913C92.445 37.9575 92.1938 39.03 91.2563 41.0025C90.7875 42 90.435 42.8963 90.4763 42.9938C90.5925 43.3275 91.8825 43.95 92.8988 44.205L93.8963 44.4413L93.27 44.655C92.4488 44.91 92.2725 45.2813 92.2725 46.6275C92.2725 47.8575 92.4488 48.3675 93.345 49.7138C93.7538 50.2988 94.0275 50.9063 94.0688 51.255C94.1475 51.8025 94.1288 51.84 93.6788 51.9975C93.1687 52.1407 92.6441 52.2262 92.115 52.2525C90.2775 52.3688 90.1425 52.4288 89.3213 53.2088C88.5788 53.9138 88.56 53.9513 88.56 54.7313C88.56 55.8038 88.9688 57.975 89.2238 58.2675C89.5575 58.62 91.41 59.5388 92.1338 59.6738C92.7579 59.8305 93.4178 59.7545 93.99 59.46V59.4525ZM66.9375 57.99C68.13 57.0525 69.0675 56.115 69.5925 55.3125C69.9263 54.825 69.945 54.7275 69.7875 54.315C69.5138 53.6888 67.7175 52.0688 66.72 51.5813C66.0554 51.2835 65.3523 51.0802 64.6313 50.9775L63.4013 50.82L62.64 49.8638C61.0575 47.91 60.18 46.3875 58.9275 43.4363C57.8325 40.935 56.8763 39.4725 55.3538 38.025C54.7275 37.44 54.2813 36.9525 54.3188 36.9525C54.3975 36.9525 55.14 37.3238 55.9988 37.7738C57.4238 38.535 57.6 38.595 58.245 38.4975C60.57 38.2238 62.6213 35.55 63.3638 31.8C63.5775 30.7463 64.0088 29.67 64.4588 29.025C64.4775 29.0063 65.3775 29.5913 66.4313 30.3525C69.1088 32.2463 69.6938 32.5388 71.2163 32.5988C72.2138 32.6363 72.78 32.5613 74.5763 32.13C78.405 31.1925 82.545 30.8213 85.065 31.155C86.49 31.35 88.5413 31.9763 90.0638 32.6963C91.5675 33.4013 91.86 33.4388 92.3475 33.0075C92.7563 32.655 92.7563 32.5988 92.7563 31.29C92.7375 29.355 92.0325 27.2663 90.96 26.0175C90.4125 25.3725 88.8713 24.3188 87.345 23.5163C86.8025 23.2285 86.2625 22.936 85.725 22.6388C85.0013 22.2075 84.1838 22.2675 81.9563 22.8525C79.3763 23.5163 78.6938 23.5163 75.7463 22.755C73.245 22.1288 73.0913 22.11 70.6275 22.5C69.3188 22.695 66.0375 22.5788 64.9425 22.2863C64.395 22.1288 63.8475 21.975 63.3225 21.78C62.3663 21.4088 60.705 21.3488 59.2013 21.6225C56.2125 22.1513 53.9475 23.7713 53.1263 25.9763C52.695 27.09 52.755 27.6188 53.3213 27.9675C54.2213 28.5338 55.41 30.0788 55.41 30.6825C55.41 30.72 55.1175 30.4688 54.7838 30.1163C53.9438 29.2388 53.1825 28.845 52.2825 28.845C51.7002 28.8612 51.134 29.0397 50.6477 29.3603C50.1613 29.681 49.7743 30.1311 49.53 30.66C49.2672 31.35 49.0456 32.055 48.8663 32.7713C48.3188 34.7625 47.8313 35.82 46.7963 37.2263C45.8775 38.4975 45.7425 39.0638 46.0725 40.4888C46.8938 44.0813 48.3188 45.5288 54.2738 48.9075C57.3975 50.685 58.9988 51.6825 60.1725 52.56C61.0725 53.2238 61.0913 53.265 61.0125 53.7713C60.8363 54.945 61.5788 56.2125 63.045 57.2475C63.4163 57.5025 63.6488 57.7763 63.6488 57.9713C63.6488 58.3238 64.6463 58.8113 65.3663 58.8113C65.775 58.8113 66.09 58.635 66.93 57.99H66.9375ZM91.02 51.405C93.285 51.4838 93.4013 51.3075 92.1938 49.9013C90.9225 48.435 90.5738 47.2463 91.0425 45.9375L91.2375 45.4313L90.435 45.0413C90.1613 44.9063 89.8875 44.7675 89.6138 44.67C89.4788 45.1988 89.34 45.705 89.2238 46.2338C88.9313 47.4263 88.5788 50.5125 88.56 51.8213C88.56 51.9375 88.755 51.9 89.0888 51.6863C89.5575 51.4125 89.7938 51.375 91.0238 51.4125L91.02 51.405ZM83.4225 51.2888C84.7913 51.21 86.1975 51.1125 86.5688 51.0525L87.2513 50.955L87.33 48.7088C87.4463 45.5063 87.915 43.6125 89.3025 40.5825C90.2775 38.4338 90.7088 36.5588 90.495 35.1525C90.4163 34.5488 90.3788 34.5075 89.5575 34.155C88.0537 33.5579 86.4877 33.1315 84.8888 32.8838C83.3475 32.67 78.8138 32.7863 77.115 33.12C76.41 33.2363 75.1238 33.51 74.265 33.7238C72.135 34.2113 71.0025 34.155 69.3825 33.45C67.7813 32.745 66.765 32.1038 65.8088 31.2038C65.0475 30.4988 64.9688 30.4613 64.7738 30.6975C64.6163 30.8738 64.5375 31.4025 64.4813 32.535C64.4213 34.275 64.1475 35.19 63.3863 36.42C63.2171 36.6731 63.0727 36.9418 62.955 37.2225C62.955 37.2825 63.54 37.965 64.2638 38.7075C66.765 41.3063 67.995 41.97 69.9675 41.8313C70.6125 41.7713 71.0625 41.7938 71.0625 41.8688C71.0625 42.0263 69.7913 43.02 69.2663 43.2938C69.0113 43.4288 68.955 43.5675 68.9925 43.86L69.3038 45.9113C69.48 47.085 69.615 47.6288 69.7913 47.7863C70.26 48.1763 72.6825 49.4288 74.205 50.0513C76.1963 50.8538 77.2913 51.1463 78.8138 51.2813C80.6888 51.4388 80.7263 51.4388 83.4225 51.2813V51.2888ZM67.2713 49.14C67.3088 49.08 67.1738 47.9475 66.9188 46.6388C66.6075 44.8613 66.4313 44.2163 66.2363 44.04C66.1013 43.9238 65.3775 43.4138 64.6538 42.8888C63.7028 42.205 62.8018 41.4543 61.9575 40.6425L60.6113 39.315L59.8875 39.6863L59.1263 40.095C59.1903 40.4001 59.295 40.6952 59.4375 40.9725C59.6513 41.4413 60.0825 42.5925 60.3938 43.53C61.215 45.9713 61.86 47.145 63.48 49.2713L64.0838 50.0738L65.235 50.25C65.88 50.3475 66.525 50.4863 66.7013 50.5425C66.975 50.6588 67.0125 50.6025 67.0913 49.9763C67.1288 49.7025 67.1888 49.41 67.2675 49.1363L67.2713 49.14ZM92.0175 24.8438C93.015 24.7463 93.1913 24.6075 92.76 24.1613C92.4863 23.8875 91.86 23.8688 91.3538 24.1013C91.02 24.2588 90.945 24.2175 90.4163 23.6513C89.8688 23.0475 89.8313 23.025 89.145 23.1038C88.5188 23.1825 88.4213 23.1638 88.3425 22.9088C88.0986 22.4899 87.7955 22.1084 87.4425 21.7763C86.999 21.2722 86.4444 20.8781 85.8225 20.625C84.6113 20.1563 83.9288 20.2163 82.7738 20.8613C79.4325 22.6763 79.5713 22.6575 76.3463 21.8363C73.3388 21.075 71.0925 20.295 70.3688 19.8038C69.765 19.395 68.475 18.945 67.3988 18.8063C66.5963 18.69 66.09 18.8663 65.3288 19.4888L64.92 19.8225L65.2913 20.4675C65.7975 21.3675 65.7413 21.4238 64.98 20.76C64.1588 20.0775 63.1838 19.6088 62.5575 19.5863C62.1075 19.5863 60.78 20.1713 60.6225 20.4263C60.5625 20.505 60.975 20.6025 61.5225 20.64C62.0888 20.7 62.8688 20.895 63.3975 21.1088C64.7663 21.6938 65.4675 21.8888 66.7163 22.0088C68.085 22.1438 70.5638 21.99 70.8563 21.7538C71.0138 21.6188 71.4413 21.5963 72.3413 21.675C73.5338 21.7538 74.0213 21.87 76.8525 22.6313C78.495 23.0813 79.6463 23.04 81.6 22.515C82.5 22.26 83.6325 22.0088 84.1013 21.9488C84.9038 21.87 85.0575 21.9113 86.31 22.4775C88.3013 23.3775 89.3588 23.9438 89.9438 24.4688C90.5288 24.975 90.6075 24.975 92.0138 24.8588L92.0175 24.8438ZM80.8838 21.4275L82.0763 20.8013L82.0388 19.59C82.02 18.75 81.9788 17.9288 81.9413 17.1113L81.8438 15.8625L80.6513 16.7813C79.9463 17.3288 79.2638 17.7375 78.9713 17.7975C78.1125 17.955 73.875 17.7975 73.4813 17.5838C72.9567 17.1963 72.4662 16.7647 72.015 16.2938L70.92 15.18L70.9013 15.8438C70.9013 16.1963 70.8638 16.8 70.785 17.1713C70.6875 17.8763 70.6875 17.895 71.4488 18.8513C71.8575 19.38 72.1913 19.8488 72.1913 19.905C72.1913 20.2763 77.835 22.035 79.1063 22.0538C79.515 22.0538 80.025 21.8775 80.8838 21.4275ZM78.6188 16.9913C80.025 16.7175 80.7075 15.7013 81.2363 13.125C81.7838 10.35 82.0575 5.99625 81.8025 4.14C81.5663 2.46 79.6913 1.7175 76.1175 1.83375C73.89 1.9125 72.9713 2.12625 72.21 2.77125C71.7413 3.16125 71.7413 3.2025 71.5275 5.055C71.1375 8.61 71.7225 13.6688 72.7388 15.5625C73.2263 16.4813 73.6575 16.8113 74.5538 16.9688C75.57 17.145 77.7375 17.145 78.615 16.9875L78.6188 16.9913Z" fill="black"/>
</svg>
